<svg width="0" height="0" class="hidden">
  <symbol fill="none" xmlns="http://www.w3.org/2000/svg" viewBox="0 0 30 30" id="activity-icon">
    <path d="M8.13 5h14.063v1.21H8.131V5z" fill="#fff"></path>
    <path d="M22.974 7.188H8.021a1.477 1.477 0 01-1.453-1.563 1.562 1.562 0 011.453-1.563h14.953a.781.781 0 100-1.562H8.021a3.125 3.125 0 00-3.015 3.125 3.234 3.234 0 000 .383.781.781 0 000 .187v18.18A3.125 3.125 0 008.02 27.5h14.953a.781.781 0 00.782-.781V8.024a.836.836 0 00-.782-.836z" fill="#fff"></path>
  </symbol>
</svg>